<?xml version="1.0" encoding="utf-8"?>
<!-- Generator: Adobe Illustrator 16.0.0, SVG Export Plug-In . SVG Version: 6.00 Build 0)  -->
<!DOCTYPE svg PUBLIC "-//W3C//DTD SVG 1.1//EN" "http://www.w3.org/Graphics/SVG/1.1/DTD/svg11.dtd">
<svg version="1.1" id="图层_3" xmlns="http://www.w3.org/2000/svg" xmlns:xlink="http://www.w3.org/1999/xlink" x="0px" y="0px"
	 width="192px" height="192px" viewBox="0 0 192 192" enable-background="new 0 0 192 192" xml:space="preserve">
<path fill="#4285F4" d="M160.75,20H31.25C25.034,20,20,25.035,20,31.25v129.5c0,6.215,5.034,11.25,11.25,11.25h129.5
	c6.216,0,11.25-5.035,11.25-11.25V31.25C172,25.035,166.966,20,160.75,20z"/>
<g>
	<path fill="#FFFFFF" d="M109.939,59.424v47.547c0,7.868-2.556,14.015-7.671,18.44c-5.113,4.425-11.703,6.636-19.767,6.636
		c-7.769,0-14.128-2.219-19.078-6.662c-4.95-4.44-7.424-10.578-7.424-18.414V59.424h9.686v47.547c0,5.475,1.566,9.761,4.696,12.857
		c3.13,3.098,7.171,4.648,12.12,4.648c5.245,0,9.515-1.551,12.809-4.648c3.293-3.097,4.944-7.383,4.944-12.857V59.424H109.939z"/>
	<path fill="#FFFFFF" d="M136,131.018h-9.737V59.424H136V131.018z"/>
</g>
</svg>
